<svg width="24" height="25" viewBox="0 0 24 25" fill="none" xmlns="http://www.w3.org/2000/svg">
<path d="M17 2.77148H7C4.24 2.77148 2 5.00148 2 7.75148V13.7315V14.7315C2 17.4815 4.24 19.7115 7 19.7115H8.5C8.77 19.7115 9.13 19.8915 9.3 20.1115L10.8 22.1015C11.46 22.9815 12.54 22.9815 13.2 22.1015L14.7 20.1115C14.89 19.8615 15.19 19.7115 15.5 19.7115H17C19.76 19.7115 22 17.4815 22 14.7315V7.75148C22 5.00148 19.76 2.77148 17 2.77148ZM13 14.5215H7C6.59 14.5215 6.25 14.1815 6.25 13.7715C6.25 13.3615 6.59 13.0215 7 13.0215H13C13.41 13.0215 13.75 13.3615 13.75 13.7715C13.75 14.1815 13.41 14.5215 13 14.5215ZM17 9.52148H7C6.59 9.52148 6.25 9.18148 6.25 8.77148C6.25 8.36148 6.59 8.02148 7 8.02148H17C17.41 8.02148 17.75 8.36148 17.75 8.77148C17.75 9.18148 17.41 9.52148 17 9.52148Z" fill="#226FE3"/>
<circle cx="19.5" cy="4.27148" r="3.25" fill="#F43B2F" stroke="white" stroke-width="1.5"/>
</svg>
