<svg width="22" height="14" viewBox="0 0 22 14" fill="none" xmlns="http://www.w3.org/2000/svg">
<path d="M9 0.25C8.58579 0.25 8.25 0.585787 8.25 1C8.25 1.41421 8.58579 1.75 9 1.75V0.25ZM15 1.75C15.4142 1.75 15.75 1.41421 15.75 1C15.75 0.585787 15.4142 0.25 15 0.25V1.75ZM9 8.25C8.58579 8.25 8.25 8.58579 8.25 9C8.25 9.41421 8.58579 9.75 9 9.75V8.25ZM15 9.75C15.4142 9.75 15.75 9.41421 15.75 9C15.75 8.58579 15.4142 8.25 15 8.25V9.75ZM9 4.25C8.58579 4.25 8.25 4.58579 8.25 5C8.25 5.41421 8.58579 5.75 9 5.75V4.25ZM21 5.75C21.4142 5.75 21.75 5.41421 21.75 5C21.75 4.58579 21.4142 4.25 21 4.25V5.75ZM9 12.25C8.58579 12.25 8.25 12.5858 8.25 13C8.25 13.4142 8.58579 13.75 9 13.75V12.25ZM21 13.75C21.4142 13.75 21.75 13.4142 21.75 13C21.75 12.5858 21.4142 12.25 21 12.25V13.75ZM3 4.25C2.30964 4.25 1.75 3.69036 1.75 3H0.25C0.25 4.51878 1.48122 5.75 3 5.75V4.25ZM1.75 3C1.75 2.30964 2.30964 1.75 3 1.75V0.25C1.48122 0.25 0.25 1.48122 0.25 3H1.75ZM3 1.75C3.69036 1.75 4.25 2.30964 4.25 3L5.75 3C5.75 1.48122 4.51878 0.25 3 0.25V1.75ZM4.25 3C4.25 3.69036 3.69036 4.25 3 4.25V5.75C4.51878 5.75 5.75 4.51878 5.75 3L4.25 3ZM3 12.25C2.30964 12.25 1.75 11.6904 1.75 11H0.25C0.25 12.5188 1.48122 13.75 3 13.75V12.25ZM1.75 11C1.75 10.3096 2.30964 9.75 3 9.75V8.25C1.48122 8.25 0.25 9.48122 0.25 11H1.75ZM3 9.75C3.69036 9.75 4.25 10.3096 4.25 11H5.75C5.75 9.48122 4.51878 8.25 3 8.25V9.75ZM4.25 11C4.25 11.6904 3.69036 12.25 3 12.25V13.75C4.51878 13.75 5.75 12.5188 5.75 11H4.25ZM9 1.75L15 1.75V0.25L9 0.25V1.75ZM9 9.75H15V8.25H9V9.75ZM9 5.75H21V4.25L9 4.25V5.75ZM9 13.75L21 13.75V12.25L9 12.25V13.75Z" fill="#FF796E"/>
</svg>
