<svg width="130" height="130" viewBox="0 0 130 130" fill="none" xmlns="http://www.w3.org/2000/svg">
<path d="M30.8243 40.833C33.077 39.8692 35.0339 38.3253 36.4954 36.3587C37.9569 34.3921 38.8708 32.073 39.1438 29.6381C39.4168 27.2031 39.0393 24.7392 38.0496 22.4978C37.0599 20.2563 35.4936 18.3173 33.5102 16.8786C31.5268 15.4399 29.1974 14.5528 26.7595 14.3079C24.3215 14.0629 21.8622 14.4689 19.6323 15.4843C17.4023 16.4998 15.4816 18.0884 14.0658 20.0882C12.65 22.088 11.7899 24.4275 11.5731 26.8682C11.5731 26.8986 11.5528 26.9266 11.5477 26.957C11.5358 27.0412 11.5358 27.1267 11.5477 27.2109C11.5274 27.5055 11.5147 27.8 11.5147 28.0996C11.5181 30.8121 12.3162 33.4641 13.8102 35.7279C15.3043 37.9918 17.4289 39.7684 19.9215 40.8381C11.9108 42.91 6.36548 49.5394 6.36548 57.8574V80.2342C6.36497 81.0653 6.59841 81.8799 7.03909 82.5846C7.47978 83.2894 8.10992 83.8559 8.85744 84.2193C9.60496 84.5827 10.4397 84.7284 11.2661 84.6397C12.0925 84.551 12.8773 84.2315 13.5307 83.7178V117.947C13.5266 119.348 13.9864 120.712 14.8385 121.825C15.6906 122.937 16.887 123.737 18.2411 124.098C19.5952 124.46 21.0309 124.363 22.3242 123.823C23.6175 123.283 24.6957 122.33 25.3907 121.113C26.0885 122.324 27.1663 123.27 28.457 123.806C29.7477 124.342 31.1791 124.437 32.5292 124.076C33.8793 123.715 35.0725 122.919 35.9239 121.811C36.7753 120.702 37.2372 119.344 37.2379 117.947V83.7152C37.8916 84.2211 38.6738 84.5341 39.496 84.6187C40.3183 84.7034 41.1478 84.5563 41.8909 84.1942C42.6339 83.832 43.2608 83.2692 43.7007 82.5694C44.1407 81.8697 44.3761 81.0607 44.3803 80.2342V57.8574C44.3803 49.5394 38.8477 42.91 30.8243 40.833ZM25.3729 15.9324C28.3644 15.9385 31.2492 17.0446 33.4779 19.0402C35.7066 21.0357 37.1235 23.7812 37.4588 26.7539C30.3139 28.2062 26.16 23.7324 25.9848 23.5369C25.8941 23.4348 25.7799 23.3562 25.6521 23.308C25.5242 23.2598 25.3866 23.2434 25.251 23.2602C25.1156 23.2767 24.9862 23.3254 24.8736 23.4023C24.7609 23.4792 24.6683 23.5819 24.6036 23.7019C22.9151 26.8605 16.504 26.7666 13.3352 26.3781C13.7534 23.4819 15.1998 20.8328 17.4099 18.9149C19.6201 16.997 22.4466 15.9383 25.3729 15.9324V15.9324ZM13.2032 28.0945V28.0691C15.76 28.3662 22.618 28.8055 25.4795 25.4006C28.0331 27.5642 31.2732 28.7486 34.6202 28.742C35.5888 28.7409 36.5552 28.6499 37.5071 28.4703C37.4111 31.4013 36.2614 34.1995 34.269 36.3513C32.2767 38.5032 29.5752 39.8645 26.6602 40.1855C26.2362 40.1627 25.8045 40.1449 25.3704 40.1449C24.9362 40.1449 24.5045 40.1627 24.078 40.1855C21.0948 39.8624 18.3357 38.45 16.3291 36.219C14.3225 33.988 13.2095 31.0952 13.2032 28.0945V28.0945ZM42.6817 80.2342C42.6794 80.9358 42.4074 81.6098 41.922 82.1165C41.4367 82.6232 40.7752 82.924 40.0742 82.9567C39.3733 82.9893 38.6867 82.7512 38.1564 82.2917C37.6261 81.8322 37.2927 81.1865 37.2252 80.4881V60.6834C37.2252 60.4585 37.1359 60.2428 36.9769 60.0837C36.8178 59.9247 36.6021 59.8353 36.3772 59.8353C36.1523 59.8353 35.9366 59.9247 35.7775 60.0837C35.6185 60.2428 35.5291 60.4585 35.5291 60.6834V80.2342C35.5291 80.3408 35.5291 80.4449 35.5291 80.549V117.947C35.5291 119.181 35.0391 120.364 34.1667 121.236C33.2944 122.108 32.1113 122.598 30.8776 122.598C29.6439 122.598 28.4608 122.108 27.5884 121.236C26.7161 120.364 26.226 119.181 26.226 117.947V81.7221C26.226 81.6107 26.2041 81.5004 26.1615 81.3975C26.1189 81.2946 26.0564 81.2011 25.9776 81.1224C25.8989 81.0436 25.8054 80.9812 25.7025 80.9386C25.5996 80.8959 25.4893 80.874 25.378 80.874C25.2666 80.874 25.1563 80.8959 25.0534 80.9386C24.9506 80.9812 24.8571 81.0436 24.7783 81.1224C24.6996 81.2011 24.6371 81.2946 24.5945 81.3975C24.5519 81.5004 24.5299 81.6107 24.5299 81.7221V117.947C24.5299 119.181 24.0399 120.364 23.1675 121.236C22.2952 122.108 21.112 122.598 19.8784 122.598C18.6447 122.598 17.4616 122.108 16.5892 121.236C15.7169 120.364 15.2268 119.181 15.2268 117.947V60.6682C15.2268 60.4432 15.1375 60.2275 14.9784 60.0685C14.8194 59.9095 14.6037 59.8201 14.3788 59.8201C14.1538 59.8201 13.9381 59.9095 13.7791 60.0685C13.6201 60.2275 13.5307 60.4432 13.5307 60.6682V80.2189C13.5419 80.5849 13.4794 80.9493 13.3471 81.2907C13.2147 81.6321 13.0152 81.9434 12.7603 82.2062C12.5054 82.469 12.2003 82.6779 11.8631 82.8206C11.5259 82.9633 11.1635 83.0368 10.7974 83.0368C10.4313 83.0368 10.0689 82.9633 9.73172 82.8206C9.39455 82.6779 9.08946 82.469 8.83454 82.2062C8.57963 81.9434 8.38009 81.6321 8.24775 81.2907C8.1154 80.9493 8.05296 80.5849 8.06411 80.2189V57.8574C8.06411 49.1383 14.8536 42.4707 24.0602 41.8867C24.4944 41.9273 24.9311 41.9527 25.3754 41.9527C25.8198 41.9527 26.2565 41.9273 26.6907 41.8867C35.8948 42.4707 42.6868 49.1383 42.6868 57.8574L42.6817 80.2342ZM62.1081 76.2631C63.3428 75.5596 64.3754 74.5496 65.1059 73.3307C65.8364 72.1117 66.2403 70.725 66.2786 69.3044C66.3168 67.8838 65.9881 66.4773 65.3241 65.2209C64.6602 63.9644 63.6835 62.9003 62.4883 62.1315C61.2932 61.3626 59.9199 60.9149 58.5013 60.8316C57.0826 60.7483 55.6664 61.0323 54.3895 61.656C53.1126 62.2797 52.0181 63.2222 51.2117 64.3923C50.4053 65.5625 49.9143 66.9208 49.786 68.3361V68.3767C49.7772 68.4442 49.7772 68.5124 49.786 68.5799C49.786 68.7475 49.7682 68.915 49.7682 69.0877C49.7696 70.5459 50.1564 71.9778 50.8895 73.2383C51.6225 74.4989 52.6758 75.5432 53.9424 76.2656C49.7022 77.7281 46.8331 81.4555 46.8331 86.0562V98.8074C46.833 99.2909 46.9543 99.7667 47.1859 100.191C47.4174 100.616 47.7517 100.975 48.1583 101.237C48.5648 101.499 49.0305 101.654 49.5127 101.689C49.9949 101.724 50.4783 101.638 50.9184 101.438V120.313C50.9205 121.14 51.1799 121.946 51.6607 122.618C52.1414 123.291 52.8197 123.797 53.6012 124.067C54.3828 124.336 55.2289 124.356 56.0221 124.123C56.8154 123.89 57.5164 123.416 58.0278 122.766C58.5385 123.417 59.2395 123.893 60.0332 124.127C60.8269 124.361 61.6738 124.342 62.4561 124.072C63.2383 123.802 63.9169 123.295 64.3975 122.621C64.878 121.947 65.1366 121.141 65.1372 120.313V101.438C65.5105 101.607 65.9157 101.693 66.3254 101.692C67.0916 101.691 67.8261 101.386 68.3678 100.845C68.9096 100.303 69.2142 99.5685 69.2149 98.8023V86.0537C69.2149 81.4529 66.3483 77.7256 62.1081 76.2631ZM58.0151 62.5191C59.5714 62.5223 61.0762 63.0771 62.2621 64.0849C63.448 65.0928 64.2382 66.4884 64.4922 68.0238C63.4445 68.2161 62.366 68.155 61.3466 67.8459C60.3272 67.5367 59.3965 66.9883 58.6321 66.2465C58.5409 66.1451 58.4267 66.067 58.299 66.019C58.1714 65.971 58.034 65.9544 57.8986 65.9706C57.7632 65.9868 57.6337 66.0353 57.5209 66.112C57.4082 66.1887 57.3155 66.2915 57.2508 66.4115C56.451 67.907 53.3534 67.9527 51.5735 67.7877C51.8746 66.3012 52.6805 64.9646 53.8545 64.0043C55.0285 63.0441 56.4984 62.5194 58.0151 62.5191V62.5191ZM51.4618 69.4812C53.1426 69.6412 56.418 69.7072 58.1192 68.0492C59.6001 69.2011 61.4227 69.8265 63.2989 69.8266C63.7186 69.8251 64.1377 69.7945 64.5532 69.7351C64.403 71.2324 63.7442 72.633 62.6866 73.7035C61.6291 74.774 60.2366 75.4498 58.7413 75.6182C58.5026 75.6055 58.2614 75.5953 58.0151 75.5953C57.7688 75.5953 57.5301 75.5953 57.2889 75.6182C55.7507 75.4447 54.3229 74.7341 53.257 73.6116C52.1911 72.489 51.5554 71.0264 51.4618 69.4812ZM67.5188 98.8049C67.5221 99.113 67.406 99.4104 67.195 99.6349C66.9839 99.8594 66.6942 99.9935 66.3865 100.009C66.0788 100.025 65.7769 99.9212 65.544 99.7194C65.3112 99.5176 65.1654 99.2336 65.1372 98.9267V87.6558C65.1372 87.4309 65.0478 87.2152 64.8888 87.0562C64.7297 86.8971 64.514 86.8078 64.2891 86.8078V86.8078C64.0642 86.8078 63.8485 86.8971 63.6895 87.0562C63.5304 87.2152 63.4411 87.4309 63.4411 87.6558V98.8049C63.4411 98.8683 63.4411 98.9318 63.4411 98.9953V120.311C63.4411 120.917 63.2003 121.498 62.7718 121.927C62.3432 122.355 61.762 122.596 61.1559 122.596C60.5498 122.596 59.9686 122.355 59.5401 121.927C59.1115 121.498 58.8708 120.917 58.8708 120.311V99.658C58.8708 99.4331 58.7814 99.2174 58.6224 99.0583C58.4633 98.8993 58.2476 98.8099 58.0227 98.8099C57.7978 98.8099 57.5821 98.8993 57.423 99.0583C57.264 99.2174 57.1747 99.4331 57.1747 99.658V120.311C57.1747 120.917 56.9339 121.498 56.5054 121.927C56.0768 122.355 55.4956 122.596 54.8895 122.596C54.2834 122.596 53.7022 122.355 53.2737 121.927C52.8451 121.498 52.6043 120.917 52.6043 120.311V87.6558C52.6043 87.4309 52.515 87.2152 52.356 87.0562C52.1969 86.8971 51.9812 86.8078 51.7563 86.8078C51.5314 86.8078 51.3157 86.8971 51.1566 87.0562C50.9976 87.2152 50.9083 87.4309 50.9083 87.6558V98.8049C50.8941 99.1122 50.762 99.4022 50.5395 99.6147C50.3171 99.8271 50.0213 99.9457 49.7136 99.9457C49.406 99.9457 49.1102 99.8271 48.8877 99.6147C48.6652 99.4022 48.5332 99.1122 48.519 98.8049V86.0537C48.519 81.2117 52.1524 77.6367 57.2635 77.3142C57.5174 77.3371 57.7713 77.3498 58.0252 77.3498C58.2792 77.3498 58.5331 77.3371 58.787 77.3142C63.8956 77.6367 67.529 81.2117 67.529 86.0537L67.5188 98.8049ZM123.569 99.4498L114.512 77.756C115.629 78.0986 116.829 78.0457 117.912 77.6062C118.517 77.3566 119.068 76.9901 119.532 76.5277C119.996 76.0652 120.364 75.5159 120.615 74.9111C120.867 74.3063 120.997 73.6579 120.998 73.0029C120.999 72.3478 120.871 71.699 120.621 71.0935L113.603 54.0818L112.793 51.982C112.633 51.5453 109.403 42.9074 102.19 40.1119C104.196 39.3743 106.002 38.1797 107.466 36.6226C108.93 35.0656 110.012 33.1889 110.624 31.1414C110.659 31.0665 110.682 30.9869 110.693 30.9053C111.526 27.8901 111.3 24.6808 110.055 21.8115C108.809 18.9422 106.619 16.586 103.848 15.1352C104.266 14.0947 104.423 12.9676 104.304 11.8524C104.186 10.7373 103.796 9.66829 103.168 8.73911C102.54 7.80992 101.694 7.04893 100.703 6.52285C99.713 5.99678 98.6088 5.72168 97.4874 5.72168C96.3659 5.72168 95.2617 5.99678 94.2713 6.52285C93.281 7.04893 92.4348 7.80992 91.807 8.73911C91.1791 9.66829 90.7888 10.7373 90.6703 11.8524C90.5517 12.9676 90.7086 14.0947 91.127 15.1352C88.7687 16.3699 86.8215 18.2653 85.5235 20.5893C84.2256 22.9134 83.6332 25.5654 83.8188 28.2209C84.0044 30.8764 84.96 33.4202 86.5687 35.5411C88.1773 37.662 90.3693 39.268 92.8764 40.1627C85.602 43.0851 82.3571 52.175 82.2124 52.5863L74.5571 71.0935C74.0553 72.3146 74.0582 73.6848 74.5651 74.9037C75.072 76.1227 76.0415 77.0909 77.2612 77.5961C78.4003 78.0603 79.6697 78.0928 80.8311 77.6875L71.9088 99.4549C71.8565 99.5837 71.8366 99.7234 71.8508 99.8618C71.8651 100 71.913 100.133 71.9904 100.248C72.0678 100.364 72.1724 100.459 72.295 100.524C72.4175 100.59 72.5543 100.625 72.6934 100.625H89.1211V119.562C89.1202 120.569 89.4412 121.551 90.0373 122.363C90.6334 123.176 91.4735 123.776 92.4351 124.078C93.3966 124.379 94.4293 124.365 95.3824 124.038C96.3356 123.712 97.1594 123.089 97.7336 122.261C98.3079 123.089 99.1317 123.712 100.085 124.038C101.038 124.365 102.071 124.379 103.032 124.078C103.994 123.776 104.834 123.176 105.43 122.363C106.026 121.551 106.347 120.569 106.346 119.562V100.625H122.779C122.919 100.625 123.056 100.59 123.179 100.524C123.302 100.458 123.407 100.363 123.485 100.247C123.563 100.131 123.61 99.9972 123.624 99.8582C123.638 99.7192 123.617 99.5789 123.564 99.4498H123.569ZM92.3381 12.5656C92.3378 11.8068 92.5048 11.0572 92.8272 10.3703C93.1497 9.68338 93.6196 9.07599 94.2035 8.59138C94.7874 8.10677 95.471 7.75686 96.2056 7.56657C96.9402 7.37628 97.7077 7.35028 98.4534 7.49044C99.1992 7.63059 99.9049 7.93344 100.52 8.37743C101.136 8.82142 101.646 9.39563 102.014 10.0592C102.382 10.7227 102.599 11.4592 102.65 12.2163C102.701 12.9735 102.585 13.7325 102.309 14.4394C99.2079 13.2749 95.7896 13.2749 92.6885 14.4394C92.4562 13.8419 92.3357 13.2067 92.3331 12.5656H92.3381ZM97.5 15.2621C99.3129 15.2602 101.103 15.6693 102.735 16.4586C104.367 17.2478 105.799 18.3968 106.923 19.819C108.047 21.2413 108.834 22.8999 109.225 24.6701C109.616 26.4403 109.6 28.2761 109.18 30.0394C102.906 30.6691 101.484 23.7426 101.425 23.4379C101.389 23.257 101.296 23.0927 101.158 22.9695C101.021 22.8464 100.847 22.7711 100.664 22.7549C100.478 22.7348 100.292 22.7768 100.133 22.8742C99.9737 22.9716 99.8515 23.1189 99.7852 23.2932C96.7383 31.2125 87.6434 28.8791 85.5258 28.2037C85.503 27.8939 85.4877 27.5816 85.4877 27.2643C85.4911 24.0804 86.7581 21.028 89.0104 18.7776C91.2627 16.5272 94.3162 15.2628 97.5 15.2621V15.2621ZM85.8204 30.0369C88.8926 30.8215 96.6139 32.0428 100.4 25.8932C101.537 28.6557 104.018 31.7762 108.377 31.7762H108.619C107.663 34.1352 105.982 36.1292 103.819 37.4701C101.656 38.8111 99.1219 39.4294 96.584 39.2358C94.0462 39.0422 91.6357 38.0467 89.7009 36.3931C87.766 34.7395 86.407 32.5136 85.8204 30.0369V30.0369ZM93.859 122.596C93.0558 122.592 92.2866 122.271 91.7189 121.703C91.1511 121.134 90.8307 120.365 90.8274 119.562V100.625H96.8907V119.562C96.8873 120.365 96.5666 121.135 95.9983 121.703C95.43 122.272 94.6602 122.593 93.8565 122.596H93.859ZM104.658 119.562C104.658 119.96 104.579 120.355 104.427 120.723C104.274 121.091 104.051 121.425 103.769 121.707C103.487 121.989 103.153 122.212 102.785 122.365C102.416 122.517 102.022 122.596 101.623 122.596C101.225 122.596 100.83 122.517 100.462 122.365C100.094 122.212 99.7597 121.989 99.478 121.707C99.1962 121.425 98.9728 121.091 98.8203 120.723C98.6678 120.355 98.5893 119.96 98.5893 119.562V100.625H104.658V119.562ZM73.9604 98.9293L90.7868 57.8904C90.86 57.6852 90.8514 57.4597 90.7628 57.2606C90.6742 57.0615 90.5124 56.9042 90.3109 56.8212C90.1094 56.7383 89.8837 56.7361 89.6806 56.8151C89.4775 56.8941 89.3127 57.0482 89.2202 57.2455L82.1946 74.2572C82.0366 74.6648 81.7989 75.0367 81.4953 75.3511C81.1917 75.6655 80.8284 75.9162 80.4267 76.0884C80.0249 76.2605 79.5928 76.3508 79.1558 76.3537C78.7187 76.3567 78.2854 76.2724 77.8814 76.1057C77.4773 75.939 77.1107 75.6933 76.8028 75.383C76.495 75.0727 76.2522 74.7041 76.0887 74.2987C75.9252 73.8934 75.8444 73.4595 75.8508 73.0224C75.8572 72.5854 75.9509 72.1541 76.1262 71.7537L83.1467 54.742L83.8043 53.1982C83.8475 53.0738 88.169 40.9879 97.4975 40.96H97.5305C106.839 40.96 111.155 52.467 111.203 52.5965L112.029 54.7318L119.052 71.7435C119.383 72.5477 119.382 73.4505 119.049 74.2539C118.716 75.0573 118.077 75.6958 117.274 76.0295C116.579 76.3075 115.81 76.3429 115.091 76.1301C114.373 75.9173 113.748 75.4686 113.316 74.8564L105.953 57.2277C105.91 57.1249 105.847 57.0314 105.769 56.9527C105.69 56.874 105.596 56.8116 105.493 56.769C105.39 56.7265 105.28 56.7046 105.169 56.7047C105.057 56.7047 104.947 56.7267 104.844 56.7694C104.741 56.8121 104.648 56.8746 104.569 56.9534C104.491 57.0322 104.428 57.1257 104.386 57.2287C104.343 57.3316 104.321 57.4419 104.321 57.5532C104.321 57.6646 104.343 57.7749 104.386 57.8777L111.409 74.8894C111.519 75.154 111.65 75.4088 111.803 75.6512L121.507 98.9191L73.9604 98.9293Z" fill="#E56D63"/>
</svg>
