<svg width="24" height="25" viewBox="0 0 24 25" fill="none" xmlns="http://www.w3.org/2000/svg">
<circle opacity="0.08" cx="12" cy="12.5" r="10" fill="black"/>
<path fill-rule="evenodd" clip-rule="evenodd" d="M12 7.25C10.7574 7.25 9.75 8.25736 9.75 9.5C9.75 9.91421 9.41421 10.25 9 10.25C8.58579 10.25 8.25 9.91421 8.25 9.5C8.25 7.42893 9.92893 5.75 12 5.75C14.0711 5.75 15.75 7.42893 15.75 9.5C15.75 11.1424 14.6946 12.5363 13.2273 13.0444C13.0697 13.0989 12.9366 13.1873 12.8517 13.2813C12.7708 13.3708 12.75 13.4441 12.75 13.5V14.5C12.75 14.9142 12.4142 15.25 12 15.25C11.5858 15.25 11.25 14.9142 11.25 14.5V13.5C11.25 12.4975 12.0578 11.8619 12.7365 11.6269C13.6185 11.3216 14.25 10.4836 14.25 9.5C14.25 8.25736 13.2426 7.25 12 7.25Z" fill="black"/>
<path d="M13 17.5C13 18.0523 12.5523 18.5 12 18.5C11.4477 18.5 11 18.0523 11 17.5C11 16.9477 11.4477 16.5 12 16.5C12.5523 16.5 13 16.9477 13 17.5Z" fill="black"/>
</svg>
