<svg width="59" height="150" viewBox="0 0 59 150" fill="none" xmlns="http://www.w3.org/2000/svg">
<path d="M51.6552 104.393L45.8163 88.1513C46.31 87.8349 46.7773 87.4793 47.2138 87.0878C49.1533 85.33 50.0878 83.0448 49.9912 80.3173C49.6601 70.9598 41.3369 58.204 39.4121 55.3739C41.6164 53.0184 43.0255 50.0302 43.4404 46.8309C43.4861 46.7385 43.5176 46.6398 43.5341 46.538C43.5515 46.4136 43.5436 46.2871 43.5107 46.1659C43.5488 45.7352 43.5693 45.287 43.5693 44.8593C43.5668 41.9858 42.7626 39.17 41.2471 36.7287C39.7317 34.2873 37.5651 32.3172 34.9912 31.0399C35.2826 30.061 35.3599 29.0307 35.2179 28.0192C35.076 27.0077 34.718 26.0386 34.1683 25.1777C33.6187 24.3168 32.8902 23.5842 32.0323 23.0298C31.1745 22.4753 30.2074 22.112 29.1967 21.9644C28.186 21.8168 27.1553 21.8884 26.1748 22.1744C25.1942 22.4603 24.2866 22.9539 23.5137 23.6217C22.7408 24.2895 22.1206 25.1157 21.6953 26.0444C21.27 26.9731 21.0495 27.9824 21.0488 29.0038C21.0501 29.6843 21.1488 30.361 21.3417 31.0136C19.1802 32.0741 17.2973 33.6265 15.8441 35.5462C14.3909 37.4658 13.4078 39.6994 12.9737 42.0676C12.5396 44.4358 12.6666 46.8728 13.3444 49.1831C14.0222 51.4934 15.2321 53.6127 16.8769 55.371C16.0888 56.5429 14.1757 59.4725 12.333 62.7802C10.666 63.587 9.33311 64.9506 8.56447 66.6355C7.79583 68.3205 7.63968 70.2209 8.12299 72.0087C6.99506 75.1405 6.36518 77.9325 6.29194 80.3114C6.19526 83.0389 7.13276 85.3153 9.07221 87.0819C9.76552 87.7026 10.5331 88.235 11.3574 88.6669L6.66987 104.44C6.62656 104.586 6.61792 104.74 6.64461 104.89C6.6713 105.04 6.73259 105.182 6.82362 105.304C6.91464 105.426 7.03289 105.525 7.16895 105.593C7.30501 105.661 7.45512 105.697 7.60736 105.697H19.2177V122.654C19.218 123.816 19.589 124.948 20.2769 125.884C20.9647 126.821 21.9335 127.513 23.0421 127.861C24.1508 128.209 25.3415 128.193 26.441 127.818C27.5405 127.442 28.4914 126.725 29.1552 125.771C29.8191 126.725 30.7699 127.442 31.8694 127.818C32.9689 128.193 34.1596 128.209 35.2683 127.861C36.377 127.513 37.3457 126.821 38.0336 125.884C38.7214 124.948 39.0925 123.816 39.0927 122.654V105.703H50.7236C50.8805 105.703 51.0351 105.665 51.1743 105.593C51.3135 105.52 51.4332 105.415 51.5234 105.287C51.6136 105.159 51.6716 105.01 51.6925 104.855C51.7134 104.699 51.6966 104.541 51.6435 104.393H51.6552ZM14.7939 46.6493C17.8203 46.62 26.4042 45.952 31.6455 39.744C32.8437 42.0175 35.7119 46.0253 41.4042 47.1913C40.8343 50.3461 39.1584 53.1944 36.6775 55.2247C34.1966 57.2551 31.0731 58.3346 27.8679 58.2693C24.6627 58.204 21.5858 56.9983 19.1896 54.8685C16.7934 52.7388 15.2349 49.8247 14.7939 46.6493V46.6493ZM22.997 29.0009C22.9954 28.2681 23.1499 27.5433 23.4501 26.8748C23.7504 26.2063 24.1895 25.6094 24.7383 25.1238C25.2871 24.6382 25.933 24.275 26.6331 24.0584C27.3332 23.8417 28.0713 23.7766 28.7985 23.8674C29.5257 23.9582 30.2252 24.2027 30.8505 24.5848C31.4758 24.9669 32.0126 25.4777 32.4252 26.0833C32.8378 26.6889 33.1168 27.3755 33.2435 28.0972C33.3702 28.819 33.3418 29.5595 33.1601 30.2694C29.9197 29.1465 26.3966 29.1403 23.1523 30.2518C23.0539 29.8431 23.0047 29.4242 23.0058 29.0038L22.997 29.0009ZM28.1328 31.3798C31.707 31.3798 35.1348 32.7996 37.6621 35.327C40.1895 37.8543 41.6093 41.2821 41.6093 44.8563C41.6093 44.9852 41.6093 45.1083 41.6093 45.2343C34.9794 43.7694 32.8876 37.7987 32.7997 37.535C32.7427 37.3612 32.638 37.2068 32.4976 37.0894C32.3572 36.972 32.1867 36.8964 32.0054 36.871C31.8242 36.8457 31.6395 36.8717 31.4723 36.9461C31.305 37.0205 31.1621 37.1403 31.0595 37.2919C26.5156 43.9979 17.4833 44.6542 14.6826 44.6923C14.7257 41.1496 16.1621 37.7664 18.681 35.275C21.1999 32.7835 24.5986 31.3841 28.1415 31.3798H28.1328ZM18.3124 56.7421C21.0746 59.0302 24.5489 60.2824 28.1357 60.2824C31.7225 60.2824 35.1968 59.0302 37.9589 56.7421C40.0742 59.9061 47.7265 71.9237 48.0253 80.3876C48.1015 82.5438 47.4042 84.2636 45.8867 85.6434C45.3453 86.1278 44.7495 86.5476 44.1113 86.8944V86.8944C39.4999 89.4345 32.2636 89.2235 30.4794 88.9921C29.5214 88.8661 29.1552 88.1132 29.1171 87.4188C29.1171 87.3485 29.1171 87.2811 29.1171 87.2108C29.1171 87.1405 29.1171 87.1493 29.1171 87.12C29.1287 86.8265 29.2005 86.5384 29.3279 86.2737C29.4553 86.009 29.6356 85.7732 29.8578 85.581C30.0799 85.3888 30.3392 85.2442 30.6194 85.1561C30.8997 85.0681 31.1951 85.0385 31.4872 85.0692C33.2429 85.0624 34.9968 84.9548 36.7402 84.747C36.7934 84.7561 36.8473 84.761 36.9013 84.7616C37.031 84.7609 37.1594 84.735 37.2792 84.6854C38.1318 84.58 38.9111 84.4657 39.5263 84.3485C39.6816 84.3309 41.0761 84.1376 41.8525 83.0741C42.0744 82.762 42.2271 82.4061 42.3004 82.0302C42.3736 81.6542 42.3658 81.267 42.2773 80.8944C41.8642 78.7968 39.4999 73.1747 39.4003 72.9345C39.2993 72.6951 39.1074 72.5058 38.8667 72.408C38.6261 72.3102 38.3564 72.312 38.1171 72.413C37.8778 72.514 37.6884 72.7059 37.5906 72.9466C37.4928 73.1872 37.4946 73.4569 37.5956 73.6962C38.2578 75.2665 40.0449 79.6932 40.3554 81.2723C40.3897 81.3792 40.4001 81.4924 40.386 81.6037C40.3718 81.7151 40.3334 81.822 40.2734 81.9169C40.0419 82.2391 39.4706 82.3827 39.2333 82.4149C38.7236 82.5087 38.0966 82.6054 37.4082 82.7079C36.1074 80.496 31.3437 73.3593 23.6093 71.4843C23.7107 70.9769 23.7618 70.4607 23.7617 69.9432C23.7586 67.8359 22.9209 65.8156 21.4318 64.3243C19.9428 62.8331 17.9237 61.9924 15.8164 61.9862C15.5497 61.9862 15.289 61.9862 15.0312 62.0243C16.3671 59.7274 17.6328 57.7763 18.3212 56.7421H18.3124ZM15.0722 77.8681C15.3124 77.8886 15.5527 77.9003 15.7958 77.9003C17.3017 77.899 18.7764 77.4709 20.0489 76.6656C21.3214 75.8603 22.3395 74.7109 22.9853 73.3505C29.2753 74.8153 33.5556 80.3671 35.2343 82.9276C33.999 83.0511 32.7581 83.1108 31.5165 83.1063H31.4228C30.7992 83.0882 30.1796 83.2104 29.6096 83.4639C29.0396 83.7175 28.5339 84.0959 28.1298 84.5712C27.7258 84.0959 27.2201 83.7175 26.6501 83.4639C26.0801 83.2104 25.4604 83.0882 24.8369 83.1063H24.7431C21.4824 83.1532 16.6425 82.2919 15.1015 81.993C14.5683 80.5663 14.8466 78.8319 15.081 77.8681H15.0722ZM28.1298 89.8798C28.6832 90.4613 29.4218 90.8321 30.2187 90.9286C31.1846 91.0353 32.1561 91.0843 33.1279 91.0751C34.4463 91.0755 35.7637 91.0031 37.0742 90.8583C36.872 92.1298 36.0839 94.0809 33.3037 95.0829C29.8232 96.3456 23.6357 94.3095 19.7216 90.914C20.9609 91.0311 22.1269 91.0751 23.1347 91.0751C24.1065 91.0842 25.0779 91.0353 26.0439 90.9286C26.8425 90.8342 27.5833 90.4644 28.1386 89.8827L28.1298 89.8798ZM15.8164 63.9432C17.003 63.9432 18.1631 64.2951 19.1498 64.9544C20.1365 65.6137 20.9055 66.5508 21.3596 67.6471C21.8138 68.7435 21.9326 69.9499 21.7011 71.1138C21.4696 72.2777 20.8981 73.3468 20.059 74.1859C19.2199 75.025 18.1508 75.5964 16.9869 75.828C15.823 76.0595 14.6166 75.9406 13.5203 75.4865C12.4239 75.0324 11.4868 74.2634 10.8275 73.2767C10.1682 72.29 9.81635 71.1299 9.81635 69.9432C9.81868 68.3527 10.4516 66.8279 11.5763 65.7032C12.701 64.5785 14.2258 63.9456 15.8164 63.9432V63.9432ZM8.26069 80.3847C8.37316 78.407 8.73743 76.4518 9.34467 74.5663C10.297 75.8985 11.6358 76.9059 13.1796 77.452C12.8544 78.8026 12.5087 81.2606 13.5664 83.3114C13.6333 83.4409 13.7283 83.5538 13.8443 83.642C13.9604 83.7301 14.0946 83.7913 14.2372 83.8212C14.5009 83.8768 20.6826 85.1366 24.7988 85.0692H24.8574C26.3486 85.0692 27.0927 86.0975 27.1689 87.12C27.1689 87.1493 27.1689 87.1815 27.1689 87.2108C27.1689 87.2401 27.1689 87.3485 27.1689 87.4188C27.1308 88.119 26.7646 88.8661 25.8066 88.9921C23.7705 89.2557 14.6298 89.4931 10.3994 85.6405C8.87299 84.2606 8.1728 82.5409 8.24897 80.3847H8.26069ZM38.1435 103.746C38.0149 103.746 37.8875 103.771 37.7686 103.82C37.6497 103.869 37.5417 103.941 37.4507 104.032C37.3598 104.123 37.2877 104.231 37.2387 104.35C37.1896 104.468 37.1646 104.596 37.165 104.724V122.66C37.165 123.589 36.7961 124.479 36.1396 125.136C35.483 125.792 34.5925 126.161 33.664 126.161C32.7355 126.161 31.845 125.792 31.1884 125.136C30.5319 124.479 30.163 123.589 30.163 122.66V104.376C30.163 104.116 30.0599 103.867 29.8764 103.684C29.6929 103.5 29.444 103.397 29.1845 103.397C28.925 103.397 28.6761 103.5 28.4926 103.684C28.3091 103.867 28.206 104.116 28.206 104.376V122.66C28.206 123.589 27.8371 124.479 27.1806 125.136C26.524 125.792 25.6335 126.161 24.705 126.161C23.7765 126.161 22.886 125.792 22.2295 125.136C21.5729 124.479 21.204 123.589 21.204 122.66V104.724C21.2044 104.596 21.1794 104.468 21.1303 104.35C21.0813 104.231 21.0093 104.123 20.9183 104.032C20.8274 103.941 20.7193 103.869 20.6004 103.82C20.4816 103.771 20.3541 103.746 20.2255 103.746H8.93158L13.1591 89.4872C14.2568 89.896 15.3854 90.2163 16.5341 90.4452C19.8681 94.5175 26.1699 97.4003 30.9716 97.4003C31.9944 97.417 33.0124 97.2564 33.9804 96.9257C37.5136 95.6454 38.914 92.9296 39.0898 90.5712C40.8034 90.2873 42.4759 89.7954 44.0703 89.1063L49.3437 103.755L38.1435 103.746Z" fill="#1F64CC"/>
</svg>
