<svg width="16" height="16" viewBox="0 0 16 16" fill="none" xmlns="http://www.w3.org/2000/svg">
<path d="M10 0.666748H6V2.00008H10V0.666748ZM7.33333 9.33342H8.66667V5.33342H7.33333V9.33342ZM12.6867 4.92675L13.6333 3.98008C13.3467 3.64008 13.0333 3.32008 12.6933 3.04008L11.7467 3.98675C10.7133 3.16008 9.41333 2.66675 8 2.66675C4.68667 2.66675 2 5.35342 2 8.66675C2 11.9801 4.68 14.6667 8 14.6667C11.32 14.6667 14 11.9801 14 8.66675C14 7.25342 13.5067 5.95341 12.6867 4.92675ZM8 13.3334C5.42 13.3334 3.33333 11.2467 3.33333 8.66675C3.33333 6.08675 5.42 4.00008 8 4.00008C10.58 4.00008 12.6667 6.08675 12.6667 8.66675C12.6667 11.2467 10.58 13.3334 8 13.3334Z" fill="black"/>
</svg>
